<svg width="20" height="20" viewBox="0 0 20 20" fill="none" xmlns="http://www.w3.org/2000/svg">
<path d="M10.0208 19.3483C7.44084 19.3483 4.87084 18.9383 2.42084 18.1183C1.51084 17.8183 0.82084 17.1683 0.52084 16.3483C0.22084 15.5283 0.32084 14.5883 0.81084 13.7683L2.08084 11.6483C2.36084 11.1783 2.61084 10.2983 2.61084 9.7483V7.64828C2.61084 3.55828 5.93084 0.238281 10.0208 0.238281C14.1108 0.238281 17.4308 3.55828 17.4308 7.64828V9.7483C17.4308 10.2883 17.6808 11.1783 17.9608 11.6483L19.2308 13.7683C19.7008 14.5483 19.7808 15.4783 19.4708 16.3283C19.1608 17.1783 18.4808 17.8283 17.6208 18.1183C15.1708 18.9483 12.6008 19.3483 10.0208 19.3483ZM10.0208 1.74828C6.76084 1.74828 4.11084 4.39828 4.11084 7.65828V9.7583C4.11084 10.5683 3.79084 11.7383 3.37084 12.4283L2.10084 14.5583C1.84084 14.9883 1.78084 15.4483 1.93084 15.8483C2.08084 16.2483 2.42084 16.5483 2.90084 16.7083C7.50084 18.2383 12.5608 18.2383 17.1608 16.7083C17.5908 16.5683 17.9208 16.2483 18.0708 15.8283C18.2308 15.4083 18.1808 14.9483 17.9508 14.5583L16.6808 12.4383C16.2608 11.7483 15.9408 10.5783 15.9408 9.7683V7.66828C15.9308 4.39828 13.2808 1.74828 10.0208 1.74828Z" fill="#061023"/>
</svg>
